<?xml version="1.0" encoding="UTF-8"?>
<svg version="1.1" xmlns="http://www.w3.org/2000/svg" width="299" height="200">
<path d="M0 0 C0.8807156 -0.00256327 1.76143121 -0.00512655 2.66883516 -0.0077675 C5.60155696 -0.01268435 8.53375679 0.00375279 11.46643066 0.02018738 C13.57595813 0.0210341 15.68548648 0.02055762 17.79501343 0.01885986 C23.5093113 0.01800027 29.22341967 0.03562047 34.93767357 0.05658174 C40.91408702 0.07535433 46.89050497 0.07709944 52.86694336 0.08065796 C64.17857872 0.08997669 75.49012694 0.11458822 86.80172396 0.14470643 C99.68194236 0.17825572 112.56216496 0.19473779 125.44241619 0.20979273 C151.93289117 0.24113786 178.42328884 0.2938951 204.91369629 0.36076355 C202.19337747 3.83773918 199.57470495 6.62891035 196.10119629 9.36076355 C191.49046371 13.05671696 186.99187681 16.85157201 182.53869629 20.73576355 C176.2413953 26.21991868 169.89270753 31.63783039 163.50646973 37.01799011 C160.80554827 39.29497786 158.10989322 41.57818545 155.41369629 43.86076355 C152.17670634 46.6005767 148.93916092 49.33971907 145.69885254 52.0756073 C144.62455903 52.98307088 143.55034041 53.89062315 142.47619629 54.79826355 C141.94397461 55.24798523 141.41175293 55.69770691 140.86340332 56.16105652 C137.42187813 59.07327534 133.99715973 62.00432663 130.57971191 64.94474792 C125.92187703 68.95241611 121.25065993 72.92917968 116.47619629 76.79826355 C111.42515561 80.89991626 106.51241233 85.14667366 101.60583496 89.41862488 C95.95125098 94.33942429 90.239063 99.18850076 84.50646973 104.01799011 C81.80554827 106.29497786 79.10989322 108.57818545 76.41369629 110.86076355 C73.17670634 113.6005767 69.93916092 116.33971907 66.69885254 119.0756073 C65.62455903 119.98307088 64.55034041 120.89062315 63.47619629 121.79826355 C62.94397461 122.24798523 62.41175293 122.69770691 61.86340332 123.16105652 C58.42187813 126.07327534 54.99715973 129.00432663 51.57971191 131.94474792 C46.92187703 135.95241611 42.25065993 139.92917968 37.47619629 143.79826355 C32.37062164 147.94137346 27.41569575 152.24306805 22.46081543 156.56364441 C18.82631778 159.72542193 15.15848786 162.82926561 11.41369629 165.86076355 C6.38466686 169.93472508 1.49861089 174.15788269 -3.38122559 178.40788269 C-8.12286597 182.53506738 -12.89959948 186.61752228 -17.71008301 190.66423035 C-20.59561762 193.09221912 -23.4463338 195.55309423 -26.27380371 198.04826355 C-29.08630371 200.36076355 -29.08630371 200.36076355 -31.08630371 200.36076355 C-31.22666832 177.35978448 -31.33237002 154.35887636 -31.39717674 131.35755539 C-31.42807186 120.67683822 -31.47016921 109.99638767 -31.53894043 99.31584167 C-31.59887557 90.00312307 -31.63748442 80.69059763 -31.65083468 71.37769151 C-31.65863458 66.4496838 -31.67687499 61.52222856 -31.72068405 56.5943985 C-31.76164842 51.94856575 -31.77392501 47.30350888 -31.7649498 42.65751266 C-31.76658985 40.95964963 -31.77838253 39.26175852 -31.80153656 37.56405258 C-31.94652378 26.37710926 -30.88264853 16.82226036 -23.06162071 8.10374069 C-16.40413028 1.60758528 -9.00247494 -0.09719819 0 0 Z " fill="#FFFFFF" transform="translate(31.0863037109375,-0.3607635498046875)"/>
<path d="M0 0 C1.87769231 0.00276538 1.87769231 0.00276538 3.79331779 0.00558662 C4.48923055 0.00387777 5.1851433 0.00216892 5.90214431 0.00040829 C8.24535632 -0.00289871 10.58828503 0.00813675 12.93147087 0.01904488 C14.60662136 0.01960873 16.28177233 0.01929294 17.95692253 0.01815987 C22.51455297 0.01758434 27.07207886 0.02937086 31.62968493 0.04330778 C36.38895613 0.05578196 41.14822954 0.05698302 45.90751457 0.0593586 C54.92437644 0.06558313 63.94119001 0.08200708 72.95803058 0.10205758 C83.22147831 0.12438634 93.4849283 0.13540239 103.74839425 0.14544845 C124.86527361 0.16637249 145.98210944 0.20156733 167.09895134 0.24609566 C167.14460968 4.58720654 167.17219017 8.92825493 167.19660759 13.26953316 C167.20969963 14.49341743 167.22279167 15.71730171 167.23628044 16.97827339 C167.29040491 29.80793778 165.44449576 39.80518854 156.09895134 49.24609566 C148.52729594 56.27691853 140.28837816 58.72018534 130.08221245 58.60685921 C129.22106018 58.60942248 128.35990791 58.61198576 127.47266012 58.61462671 C124.61213626 58.61953392 121.75215047 58.60312265 118.89167595 58.58667183 C116.83126144 58.58582489 114.77084603 58.586302 112.71043205 58.58799934 C107.13461665 58.58885812 101.55899587 58.57125123 95.98322558 58.55027747 C90.14962364 58.53149118 84.31601697 58.52975869 78.48238945 58.52620125 C67.44348926 58.51688653 56.40467847 58.49228045 45.36581761 58.46215278 C32.79512305 58.42859097 20.22442417 58.41211827 7.65369594 58.39706647 C-18.19793511 58.36573044 -44.04948687 58.31298104 -69.90104866 58.24609566 C-62.60406393 50.92038859 -54.90552316 44.19038512 -46.87370491 37.68359566 C-43.57309825 34.97718494 -40.32535675 32.21568261 -37.08854866 29.43359566 C-36.50194466 28.92941109 -35.91534065 28.42522652 -35.31096077 27.90576363 C-33.50684426 26.35348144 -31.70375322 24.80001727 -29.90104866 23.24609566 C-22.34413235 16.73207454 -14.7726632 10.25778432 -7.01042366 3.98828316 C-2.43127398 0.20624472 -2.43127398 0.20624472 0 0 Z " fill="#FFFFFF" transform="translate(131.90104866027832,141.75390434265137)"/>
<path d="M0 0 C0 34.32 0 68.64 0 104 C-40.59 104 -81.18 104 -123 104 C-116.29652352 96.17927744 -116.29652352 96.17927744 -112.0625 92.875 C-107.44061368 89.1900675 -102.95043737 85.39012848 -98.5 81.5 C-93.36832056 77.02398878 -88.16811907 72.65990592 -82.875 68.375 C-79.36452361 65.47504125 -75.93167273 62.49241862 -72.5 59.5 C-68.21783896 55.76595557 -63.91668732 52.07541354 -59.5 48.5 C-54.46651459 44.42242873 -49.57666691 40.19494085 -44.69189453 35.94189453 C-39.04044089 31.02391218 -33.33120445 26.17800966 -27.6015625 21.3515625 C-25.96071264 19.9668453 -24.32361195 18.57781109 -22.6875 17.1875 C-19.46536698 14.44994096 -16.23482884 11.72253922 -13 9 C-12.47003418 8.55253418 -11.94006836 8.10506836 -11.39404297 7.64404297 C-9.87137966 6.36147932 -8.34207473 5.08681323 -6.8125 3.8125 C-5.93207031 3.07644531 -5.05164063 2.34039062 -4.14453125 1.58203125 C-2 -0 -2 -0 0 0 Z " fill="#FFFFFF" transform="translate(299,0)"/>
</svg>
